<?xml version="1.0" encoding="utf-8"?>
<!-- Generator: Adobe Illustrator 27.7.0, SVG Export Plug-In . SVG Version: 6.00 Build 0)  -->
<svg version="1.1" id="Calque_1" xmlns="http://www.w3.org/2000/svg" xmlns:xlink="http://www.w3.org/1999/xlink" x="0px" y="0px"
	 viewBox="0 0 32 32.1" style="enable-background:new 0 0 32 32.1;" xml:space="preserve">
<style type="text/css">
	.st0{stroke:#000000;stroke-width:1.5;stroke-miterlimit:10;}
	.st1{display:none;}
	.st2{display:none;fill:none;stroke:#000000;stroke-width:1.5;stroke-miterlimit:10;}
</style>
<g>
	<g>
		<path class="st0" d="M13.7,28.7c-0.1-0.1-0.2-0.3-0.2-0.4l0-9.7l-9.7,0c-0.3,0-0.6-0.3-0.6-0.6s0.3-0.6,0.6-0.6h10.3
			c0.3,0,0.6,0.3,0.6,0.6c0,0,0,0,0,0v10.3c0,0.3-0.3,0.6-0.6,0.6c0,0,0,0,0,0C14,28.9,13.9,28.9,13.7,28.7z"/>
	</g>
</g>
<g class="st1">
	<g>
		<path class="st0" d="M18.2-2.6c0.2,0.2,0.3,0.4,0.3,0.7l0,16l16,0c0.6,0,1,0.4,1,1c0,0.6-0.4,1-1,1h-17c-0.6,0-1-0.4-1-1
			c0,0,0,0,0,0v-17c0-0.6,0.4-1,1-1c0,0,0,0,0,0C17.7-2.9,18-2.8,18.2-2.6z"/>
	</g>
</g>
<circle class="st2" cx="16.5" cy="15.8" r="5.5"/>
<g>
	<g>
		<path class="st0" d="M18.5,3.2c0.1,0.1,0.2,0.3,0.2,0.4l0,9.7l9.7,0c0.3,0,0.6,0.3,0.6,0.6s-0.3,0.6-0.6,0.6H18.1
			c-0.3,0-0.6-0.3-0.6-0.6c0,0,0,0,0,0V3.7c0-0.3,0.3-0.6,0.6-0.6c0,0,0,0,0,0C18.3,3.1,18.4,3.1,18.5,3.2z"/>
	</g>
</g>
</svg>
