<?xml version="1.0" encoding="utf-8"?>
<!-- Generator: Adobe Illustrator 27.7.0, SVG Export Plug-In . SVG Version: 6.00 Build 0)  -->
<svg version="1.1" id="Calque_1" xmlns="http://www.w3.org/2000/svg" xmlns:xlink="http://www.w3.org/1999/xlink" x="0px" y="0px"
	 viewBox="0 0 69.2 68.6" style="enable-background:new 0 0 69.2 68.6;" xml:space="preserve">
<style type="text/css">
	.st0{fill-rule:evenodd;clip-rule:evenodd;}
</style>
<path class="st0" d="M34.6,64.3c-17.2,0-31.1-14.5-30-32c0.9-15,13.1-27.2,28.1-28.1c17.5-1.1,32,12.8,32,30
	C64.7,50.8,51.2,64.3,34.6,64.3z M34.7,11.4c-13.1-0.1-23.6,10.9-22.9,24.1C12.5,46.9,21.7,56.2,33,57c13.2,0.9,24.3-9.6,24.4-22.6
	C57.5,21.8,47.3,11.5,34.7,11.4z M46.8,45.6L46,46.5c-1.2,1.2-3.1,1.2-4.3,0l-7.1-7.1l-7.1,7.1c-1.2,1.2-3.1,1.2-4.3,0l-0.8-0.8
	c-1.2-1.2-1.2-3.1,0-4.3l7.1-7.1L22.3,27c-1.2-1.2-1.2-3.1,0-4.3l0.8-0.8c1.2-1.2,3.1-1.2,4.3,0l7.1,7.1l7.1-7.1
	c1.2-1.2,3.1-1.2,4.3,0l0.8,0.8c1.2,1.2,1.2,3.1,0,4.3l-7.1,7.1l7.1,7.1C48,42.5,48,44.4,46.8,45.6z"/>
</svg>
