<?xml version="1.0" encoding="utf-8"?>
<!-- Generator: Adobe Illustrator 27.7.0, SVG Export Plug-In . SVG Version: 6.00 Build 0)  -->
<svg version="1.1" id="Calque_1" xmlns="http://www.w3.org/2000/svg" xmlns:xlink="http://www.w3.org/1999/xlink" x="0px" y="0px"
	 viewBox="0 0 94.3 92.4" style="enable-background:new 0 0 94.3 92.4;" xml:space="preserve">
<g>
	<path d="M69.8,8.3H24c-8.1,0-14.6,6.5-14.6,14.6v45.8c0,8.1,6.5,14.6,14.6,14.6h45.8c8.1,0,14.6-6.5,14.6-14.6V22.9
		C84.4,14.8,77.9,8.3,69.8,8.3z M46.9,19.6c7.3,0,13.2,5.9,13.2,13.2s-5.9,13.3-13.2,13.3s-13.2-5.9-13.2-13.2S39.6,19.6,46.9,19.6z
		 M20.5,72c0-9.6,7.8-17.4,17.4-17.4h18c9.6,0,17.4,7.8,17.4,17.4H20.5z"/>
</g>
</svg>
