<?xml version="1.0" encoding="utf-8"?>
<!-- Generator: Adobe Illustrator 27.7.0, SVG Export Plug-In . SVG Version: 6.00 Build 0)  -->
<svg version="1.1" id="Calque_1" xmlns="http://www.w3.org/2000/svg" xmlns:xlink="http://www.w3.org/1999/xlink" x="0px" y="0px"
	 viewBox="0 0 72.6 68.7" style="enable-background:new 0 0 72.6 68.7;" xml:space="preserve">
<path d="M36.3,0c-2.2,0-4,1.8-4,4v37.1l-9-7.8c-1.7-1.4-4.2-1.1-5.6,0.6c-1.3,1.6-1.2,4.1,0.4,5.5l15.6,13.5c1.5,1.3,3.7,1.3,5.2,0
	l15.6-13.5c1.7-1.4,1.9-4,0.4-5.7c-1.4-1.7-4-1.9-5.7-0.4l-9,7.8V4C40.3,1.8,38.5,0,36.3,0z"/>
<path d="M62.6,16.3H51.3c-2.2,0-4,1.8-4,4s1.8,4,4,4h11.3c1.1,0,2,0.9,2,2v32.3c0,1.1-0.9,2-2,2H10c-1.1,0-2-0.9-2-2V26.3
	c0-1.1,0.9-2,2-2h11.3c2.2,0,4-1.8,4-4s-1.8-4-4-4H10c-5.5,0-10,4.5-10,10v32.3c0,5.5,4.5,10,10,10h52.6c5.5,0,10-4.5,10-10V26.3
	C72.6,20.8,68.1,16.3,62.6,16.3z"/>
</svg>
