<?xml version="1.0" encoding="utf-8"?>
<!-- Generator: Adobe Illustrator 27.7.0, SVG Export Plug-In . SVG Version: 6.00 Build 0)  -->
<svg version="1.1" id="Calque_1" xmlns="http://www.w3.org/2000/svg" xmlns:xlink="http://www.w3.org/1999/xlink" x="0px" y="0px"
	 viewBox="0 0 100 100.7" style="enable-background:new 0 0 100 100.7;" xml:space="preserve">
<g>
	<path d="M5273.1,2400.1v-2c0-2.8-5-4-9.7-4s-9.7,1.3-9.7,4v2c0,1.8,0.7,3.6,2,4.9l5,4.9c0.3,0.3,0.4,0.6,0.4,1v6.4
		c0,0.4,0.2,0.7,0.6,0.8l2.9,0.9c0.5,0.1,1-0.2,1-0.8v-7.2c0-0.4,0.2-0.7,0.4-1l5.1-5C5272.4,2403.7,5273.1,2401.9,5273.1,2400.1z
		 M5263.4,2400c-4.8,0-7.4-1.3-7.5-1.8l0,0c0.1-0.5,2.7-1.8,7.5-1.8s7.3,1.3,7.5,1.8C5270.7,2398.7,5268.2,2400,5263.4,2400z"/>
	<path d="M5268.4,2410.3c-0.6,0-1,0.4-1,1s0.4,1,1,1h4.3c0.6,0,1-0.4,1-1s-0.4-1-1-1H5268.4z"/>
	<path d="M5272.7,2413.7h-4.3c-0.6,0-1,0.4-1,1s0.4,1,1,1h4.3c0.6,0,1-0.4,1-1C5273.7,2414.1,5273.3,2413.7,5272.7,2413.7z"/>
	<path d="M5272.7,2417h-4.3c-0.6,0-1,0.4-1,1s0.4,1,1,1h4.3c0.6,0,1-0.4,1-1C5273.7,2417.5,5273.3,2417,5272.7,2417z"/>
</g>
<g>
	<path d="M86.5,42.3v-2.9C86.5,19.3,70.1,2.9,50,2.9S13.5,19.3,13.5,39.4v2.9c-6.4,2.4-11,8.6-11,15.8c0,9.3,7.6,16.9,16.9,16.9h6.1
		c1.6,0,2.9-1.3,2.9-2.9v-28c0-1.6-1.3-2.9-2.9-2.9h-2.8v-1.8c0-15.1,12.2-27.3,27.3-27.3s27.3,12.2,27.3,27.3v1.8h-2.8
		c-1.6,0-2.9,1.3-2.9,2.9v28c0,1.6,1.3,2.9,2.9,2.9h1.3c-2.9,6.7-9.3,11.4-16.9,12c-0.4-1.9-2.1-3.4-4.2-3.4h-9.5
		c-2.4,0-4.3,1.9-4.3,4.3v4.9c0,2.4,1.9,4.3,4.3,4.3h9.5c2.1,0,3.9-1.5,4.2-3.6c11.3-0.6,20.7-8.3,23.9-18.7
		c8.2-1.1,14.6-8.2,14.6-16.7C97.5,50.8,92.9,44.7,86.5,42.3z"/>
	<path d="M44.4,41.3c0-1.6,0.7-3.2,2-4.3s2.9-1.5,4.6-1.2c2.2,0.4,4.1,2.2,4.4,4.4c0.6,3.2-1.5,5.6-3.8,6.3c-3.2,1-5.3,4-5.3,7.5
		v3.1c0,2,1.6,3.6,3.6,3.6s3.6-1.6,3.6-3.6V54c0-0.3,0.2-0.6,0.3-0.6c6.1-2,9.8-8.1,8.7-14.5c-0.9-5.2-5.1-9.4-10.3-10.3
		c-3.8-0.7-7.6,0.3-10.5,2.8c-2.9,2.4-4.6,6-4.6,9.8c0,2,1.6,3.6,3.6,3.6C42.8,44.9,44.4,43.3,44.4,41.3z"/>
	<ellipse cx="50" cy="67.7" rx="3.9" ry="3.9"/>
</g>
</svg>
