<?xml version="1.0" encoding="utf-8"?>
<!-- Generator: Adobe Illustrator 27.7.0, SVG Export Plug-In . SVG Version: 6.00 Build 0)  -->
<svg version="1.1" id="Calque_1" xmlns="http://www.w3.org/2000/svg" xmlns:xlink="http://www.w3.org/1999/xlink" x="0px" y="0px"
	 viewBox="0 0 100 86.9" style="enable-background:new 0 0 100 86.9;" xml:space="preserve">
<style type="text/css">
	.st0{fill-rule:evenodd;clip-rule:evenodd;}
</style>
<g>
	<g>
		<g transform="translate(0.000000, 7.000000)">
			<path class="st0" d="M84.4,42.1L53.7,18.2c-2.2-1.8-5.4-1.8-7.6,0L15.4,42.1c-0.5,0.4-0.8,1-0.8,1.6V71c0,4.9,4,8.9,8.9,8.9h16
				c1.1,0,2-0.9,2-2V58.7c0-4.6,3.7-8.3,8.3-8.3c4.6,0,8.3,3.7,8.3,8.3v19.1c0,1.1,0.9,2,2,2h16c4.9,0,8.9-4,8.9-8.9V43.7
				C85.2,43.1,84.9,42.5,84.4,42.1"/>
			<path class="st0" d="M99.9,32.4c-0.2-2.1-1.3-3.9-2.9-5.2L56.1-4.9c-3.6-2.8-8.7-2.8-12.3,0L3,27.2c-1.6,1.3-2.7,3.1-2.9,5.2
				s0.3,4.1,1.6,5.8c1.3,1.6,3.1,2.7,5.2,2.9c2.1,0.2,4.1-0.3,5.8-1.6L46.4,13c2.1-1.7,5.1-1.7,7.2,0l33.7,26.5
				c1.4,1.1,3.1,1.7,4.8,1.7c0.3,0,0.6,0,0.9-0.1c2.1-0.2,3.9-1.3,5.2-2.9C99.6,36.5,100.1,34.5,99.9,32.4"/>
		</g>
	</g>
</g>
</svg>
